<svg width="42" height="42" viewBox="0 0 42 42" fill="none" xmlns="http://www.w3.org/2000/svg">
<g clip-path="url(#clip0_337_1728)">
<path d="M21 42C32.598 42 42 32.598 42 21C42 9.40202 32.598 0 21 0C9.40202 0 0 9.40202 0 21C0 32.598 9.40202 42 21 42Z" fill="#BF8613"/>
<path d="M20.9999 37.4681C30.095 37.4681 37.468 30.0951 37.468 21C37.468 11.9049 30.095 4.53186 20.9999 4.53186C11.9048 4.53186 4.53174 11.9049 4.53174 21C4.53174 30.0951 11.9048 37.4681 20.9999 37.4681Z" fill="#A36B11"/>
<path d="M21 36.3189C29.4604 36.3189 36.3189 29.4604 36.3189 21C36.3189 12.5396 29.4604 5.68109 21 5.68109C12.5397 5.68109 5.68115 12.5396 5.68115 21C5.68115 29.4604 12.5397 36.3189 21 36.3189Z" fill="#F7AB26"/>
</g>
<defs>
<clipPath id="clip0_337_1728">
<rect width="42" height="42" fill="white"/>
</clipPath>
</defs>
</svg>
