<svg width="45" height="36" viewBox="0 0 45 36" fill="none" xmlns="http://www.w3.org/2000/svg">
<g opacity="0.25" clip-path="url(#clip0_329_1372)">
<path d="M22.5 36C10.0939 36 0 27.9249 0 18C0 8.07512 10.0939 0 22.5 0C34.9061 0 45 8.07512 45 18C45 27.9249 34.9061 36 22.5 36ZM22.5 2.12752C11.5595 2.12752 2.6594 9.24762 2.6594 18C2.6594 26.7524 11.5595 33.8725 22.5 33.8725C33.4405 33.8725 42.3406 26.7524 42.3406 18C42.3406 9.24762 33.4405 2.12752 22.5 2.12752Z" fill="white"/>
<path d="M13.9218 15.6148C15.659 15.6148 17.0673 14.4882 17.0673 13.0984C17.0673 11.7087 15.659 10.582 13.9218 10.582C12.1846 10.582 10.7764 11.7087 10.7764 13.0984C10.7764 14.4882 12.1846 15.6148 13.9218 15.6148Z" fill="white"/>
<path d="M31.0781 15.6148C32.8153 15.6148 34.2236 14.4882 34.2236 13.0984C34.2236 11.7087 32.8153 10.582 31.0781 10.582C29.3409 10.582 27.9326 11.7087 27.9326 13.0984C27.9326 14.4882 29.3409 15.6148 31.0781 15.6148Z" fill="white"/>
<path d="M22.5002 29.0679C15.5754 29.0679 9.94189 24.9038 9.94189 19.7871C9.94189 19.1997 10.5373 18.7234 11.2716 18.7234C12.0059 18.7234 12.6013 19.1997 12.6013 19.7871C12.6013 23.7313 17.0425 26.9403 22.5002 26.9403C27.9579 26.9403 32.3991 23.7313 32.3991 19.7871C32.3991 19.1997 32.9945 18.7234 33.7288 18.7234C34.463 18.7234 35.0585 19.1997 35.0585 19.7871C35.0585 24.905 29.425 29.0679 22.5002 29.0679Z" fill="white"/>
</g>
<defs>
<clipPath id="clip0_329_1372">
<rect width="45" height="36" fill="white"/>
</clipPath>
</defs>
</svg>
