<svg width="47" height="47" viewBox="0 0 47 47" fill="none" xmlns="http://www.w3.org/2000/svg">
<path d="M27.4168 27.4167C27.4168 29.5798 25.6633 31.3333 23.5002 31.3333C21.337 31.3333 19.5835 29.5798 19.5835 27.4167C19.5835 25.2535 21.337 23.5 23.5002 23.5" stroke="#494949" stroke-width="1.5" stroke-linecap="round"/>
<path d="M7.83317 39.1686C5.37386 35.8953 3.9165 31.8261 3.9165 27.4167C3.9165 21.0106 6.99244 15.3229 11.7479 11.75" stroke="#494949" stroke-width="1.5" stroke-linecap="round"/>
<path d="M16.646 9.06633C18.7793 8.26917 21.0889 7.83334 23.5002 7.83334C34.3156 7.83334 43.0835 16.6011 43.0835 27.4167C43.0835 29.828 42.6478 32.1376 41.8505 34.2708" stroke="#494949" stroke-width="1.5" stroke-linecap="round"/>
<path d="M14.6892 35.25C12.8614 33.1712 11.75 30.426 11.75 27.4167C11.75 23.3296 13.7998 19.73 16.9101 17.625M31.8967 35.25C32.4247 34.6496 32.8928 33.9935 33.2917 33.2917" stroke="#494949" stroke-width="1.5" stroke-linecap="round"/>
<path d="M35.25 27.4167C35.25 20.9273 29.9893 15.6667 23.5 15.6667" stroke="#494949" stroke-width="1.5" stroke-linecap="round"/>
<path d="M3.9165 3.91666L43.0832 43.0833" stroke="#494949" stroke-width="1.5" stroke-linecap="round"/>
</svg>
